<svg width="19" height="20" viewBox="0 0 19 20" fill="none" xmlns="http://www.w3.org/2000/svg">
<path d="M6.00625 15.5C6.00625 15.9844 5.8347 16.3961 5.4916 16.7352C5.1485 17.0742 4.7388 17.2438 4.2625 17.2438C3.77813 17.2438 3.36641 17.0742 3.02734 16.7352C2.68828 16.3961 2.51875 15.9844 2.51875 15.5C2.51875 15.0156 2.68828 14.6039 3.02734 14.2648C3.36641 13.9258 3.77813 13.7563 4.2625 13.7563C4.7388 13.7563 5.1485 13.9258 5.4916 14.2648C5.8347 14.6039 6.00625 15.0156 6.00625 15.5ZM11.2375 17.825C11.2375 18.2529 11.0861 18.6182 10.7834 18.9209C10.4807 19.2236 10.1154 19.375 9.6875 19.375C9.25964 19.375 8.89434 19.2236 8.5916 18.9209C8.28887 18.6182 8.1375 18.2529 8.1375 17.825C8.1375 17.3971 8.28887 17.0318 8.5916 16.7291C8.89434 16.4264 9.25964 16.275 9.6875 16.275C10.1154 16.275 10.4807 16.4264 10.7834 16.7291C11.0861 17.0318 11.2375 17.3971 11.2375 17.825ZM3.875 10.075C3.875 10.6078 3.68529 11.0639 3.30586 11.4434C2.92643 11.8228 2.47031 12.0125 1.9375 12.0125C1.40469 12.0125 0.948568 11.8228 0.569141 11.4434C0.189714 11.0639 0 10.6078 0 10.075C0 9.54219 0.189714 9.08607 0.569141 8.70664C0.948568 8.32721 1.40469 8.1375 1.9375 8.1375C2.47031 8.1375 2.92643 8.32721 3.30586 8.70664C3.68529 9.08607 3.875 9.54219 3.875 10.075ZM16.4688 15.5C16.4688 15.8714 16.3355 16.1902 16.0691 16.4566C15.8027 16.723 15.4839 16.8563 15.1125 16.8563C14.7411 16.8563 14.4223 16.723 14.1559 16.4566C13.8895 16.1902 13.7563 15.8714 13.7563 15.5C13.7563 15.1286 13.8895 14.8098 14.1559 14.5434C14.4223 14.277 14.7411 14.1438 15.1125 14.1438C15.4839 14.1438 15.8027 14.277 16.0691 14.5434C16.3355 14.8098 16.4688 15.1286 16.4688 15.5ZM6.39375 4.65C6.39375 5.23932 6.18587 5.74186 5.77012 6.15762C5.35436 6.57337 4.85182 6.78125 4.2625 6.78125C3.67318 6.78125 3.17064 6.57337 2.75488 6.15762C2.33913 5.74186 2.13125 5.23932 2.13125 4.65C2.13125 4.06068 2.33913 3.55814 2.75488 3.14238C3.17064 2.72663 3.67318 2.51875 4.2625 2.51875C4.85182 2.51875 5.35436 2.72663 5.77012 3.14238C6.18587 3.55814 6.39375 4.06068 6.39375 4.65ZM12.0125 2.325C12.0125 2.97083 11.7865 3.51979 11.3344 3.97188C10.8823 4.42396 10.3333 4.65 9.6875 4.65C9.04167 4.65 8.49271 4.42396 8.04063 3.97188C7.58854 3.51979 7.3625 2.97083 7.3625 2.325C7.3625 1.67917 7.58854 1.13021 8.04063 0.678125C8.49271 0.226042 9.04167 0 9.6875 0C10.3333 0 10.8823 0.226042 11.3344 0.678125C11.7865 1.13021 12.0125 1.67917 12.0125 2.325ZM18.6 10.075C18.6 10.3979 18.487 10.6724 18.2609 10.8984C18.0349 11.1245 17.7604 11.2375 17.4375 11.2375C17.1146 11.2375 16.8401 11.1245 16.6141 10.8984C16.388 10.6724 16.275 10.3979 16.275 10.075C16.275 9.75208 16.388 9.4776 16.6141 9.25156C16.8401 9.02552 17.1146 8.9125 17.4375 8.9125C17.7604 8.9125 18.0349 9.02552 18.2609 9.25156C18.487 9.4776 18.6 9.75208 18.6 10.075ZM16.0813 4.65C16.0813 4.91641 15.9864 5.14447 15.7967 5.33418C15.607 5.52389 15.3789 5.61875 15.1125 5.61875C14.8461 5.61875 14.618 5.52389 14.4283 5.33418C14.2386 5.14447 14.1438 4.91641 14.1438 4.65C14.1438 4.38359 14.2386 4.15553 14.4283 3.96582C14.618 3.77611 14.8461 3.68125 15.1125 3.68125C15.3789 3.68125 15.607 3.77611 15.7967 3.96582C15.9864 4.15553 16.0813 4.38359 16.0813 4.65Z" fill="white"/>
</svg>
